<?xml version="1.0" encoding="utf-8"?>
<!-- Generator: Adobe Illustrator 25.4.1, SVG Export Plug-In . SVG Version: 6.00 Build 0)  -->
<svg version="1.1" xmlns="http://www.w3.org/2000/svg" xmlns:xlink="http://www.w3.org/1999/xlink" x="0px" y="0px"
	 viewBox="0 0 3710 3710" style="enable-background:new 0 0 3710 3710;" xml:space="preserve">
<style type="text/css">
	.st0{fill:#FFFFFF;}
	.st1{fill:#F4F7FA;}
	.st2{fill:url(#SVGID_1_);}
	.st3{clip-path:url(#SVGID_00000044869620457317523830000015980358603090051968_);}
	.st4{fill:url(#SVGID_00000053516676333957246100000003118530775087314330_);}
	
		.st5{opacity:0.3;clip-path:url(#SVGID_00000044869620457317523830000015980358603090051968_);fill:url(#SVGID_00000116920126839638294730000010624448372021722297_);}
	.st6{fill:url(#SVGID_00000096046037163766202570000009999669688159874182_);}
	.st7{fill:url(#SVGID_00000051342332088493044920000002070700594256894862_);}
	.st8{fill:url(#SVGID_00000165922672367284348460000001321764077400375440_);}
	.st9{fill:url(#SVGID_00000147208843911801543880000016693111942923935159_);}
	.st10{fill:url(#SVGID_00000064348144534380058720000005472147774488780473_);}
	.st11{fill:url(#SVGID_00000037688323514543367260000004163382035844390846_);}
	.st12{fill:url(#SVGID_00000052788287272087715740000011231911434374096035_);}
	.st13{fill:url(#SVGID_00000008113405203666321540000005180595923379108263_);}
	.st14{fill:url(#SVGID_00000006678585328120801800000015391123193595964574_);}
	.st15{fill:url(#SVGID_00000155123040787210590630000000706097411311200179_);}
	.st16{fill:url(#SVGID_00000131357745786881565910000001177330429935198627_);}
	.st17{fill:#D8DEE8;}
	.st18{opacity:0.6;fill:#D8DEE8;}
	.st19{fill:#97A6B7;}
	.st20{opacity:0.6;}
	.st21{opacity:0.3;fill:#D8DEE8;}
	.st22{fill:url(#SVGID_00000168096614544283342440000002627375350213253795_);}
	.st23{fill:url(#SVGID_00000083064770823339258190000003444665763518839691_);}
	.st24{fill:url(#SVGID_00000183250670734120560050000013557782366306444167_);}
	.st25{opacity:0.3;fill:url(#SVGID_00000034785599232318867180000008652148806428422016_);}
	.st26{opacity:0.6;fill:url(#SVGID_00000127033123369478738290000001465027395396567231_);}
	.st27{fill:url(#SVGID_00000182505467535577157010000007113676054683541942_);}
	.st28{opacity:0.6;fill:url(#SVGID_00000022522593125937553060000001361458088998215593_);}
	.st29{fill:url(#SVGID_00000093143796493013416220000001051414269539283076_);}
	.st30{opacity:0.6;fill:url(#SVGID_00000154397543367392179040000016127458460841300874_);}
	.st31{fill:url(#SVGID_00000090254420755297258730000013338899223438712984_);}
	.st32{opacity:0.6;fill:url(#SVGID_00000075144050458826733080000007446868307693801661_);}
	.st33{fill:url(#SVGID_00000049901347750800222060000000673205137588617345_);}
	.st34{opacity:0.6;fill:url(#SVGID_00000100344547962216205640000014721327908245335462_);}
	.st35{fill:url(#SVGID_00000073719764077818366050000002359316165911843721_);}
	.st36{opacity:0.6;fill:url(#SVGID_00000158708087595954996610000003541067469466742177_);}
	.st37{fill:url(#SVGID_00000175320462952734164250000011077037355780290469_);}
	.st38{opacity:0.6;fill:url(#SVGID_00000144300266459985770270000002777377940581088140_);}
	.st39{fill:url(#SVGID_00000162351517075024081430000010388920780282037377_);}
	.st40{opacity:0.6;fill:url(#SVGID_00000040545610670598849510000009752811040615346837_);}
	.st41{fill:url(#SVGID_00000065043887446067465340000008439216911656626106_);}
	.st42{fill:url(#SVGID_00000101805177076871572700000007136275955981988241_);}
	.st43{opacity:0.3;fill:url(#SVGID_00000085951053531446906780000016133699525357400477_);}
	.st44{fill:url(#SVGID_00000168799724832911533980000006264689901280222614_);}
	.st45{fill:url(#SVGID_00000039124546010817479210000001586535228725152645_);}
	.st46{opacity:0.3;fill:url(#SVGID_00000170268447729768049950000012402720612944239784_);}
	.st47{opacity:0.3;fill:url(#SVGID_00000141428309165560734260000012143981933700015236_);}
	.st48{opacity:0.3;fill:url(#SVGID_00000039106785510047812570000005138836739572231095_);}
	.st49{opacity:0.3;fill:url(#SVGID_00000167396686033109532010000010513710219171954572_);}
</style>
<g id="Background">
	<g>
		<g>
			<rect class="st0" width="3710" height="3710"/>
		</g>
	</g>
</g>
<g id="Illustration">
	<g>
		<path class="st1" d="M2570.35,625.27c95.35,133.48-12.5,352.65,127.95,452.31c136.71,97.02,301.69-66.1,430.44,17.3
			c191,123.71,162.42,699.29-111.15,1059.6c-82.27,108.36-151.52,150.91-181.1,272.79c-63.53,261.71,171.02,414.52,128.06,544.08
			c-96.74,291.71-1629.04,551.76-2254.09-315.3c-291.92-404.95-341.16-993.63-88.88-1443.78
			C1077.45,398.84,2356.41,325.76,2570.35,625.27z"/>
		<linearGradient id="SVGID_1_" gradientUnits="userSpaceOnUse" x1="859.4528" y1="3023.3206" x2="1054.2793" y2="2736.208">
			<stop  offset="0" style="stop-color:#0080F9"/>
			<stop  offset="0.9964" style="stop-color:#2365D7"/>
		</linearGradient>
		<path class="st2" d="M1801.56,2628.1c-263.16,0-510.57-102.48-696.66-288.56s-288.57-433.5-288.57-696.66
			c0-197.43,58.19-387.92,168.28-550.87c10.54-15.61,31.74-19.72,47.36-9.17c15.61,10.55,19.72,31.75,9.17,47.36
			c-102.44,151.64-156.59,328.92-156.59,512.68c0,505.64,411.37,917.01,917.01,917.01c259.54,0,508.05-110.72,681.8-303.77
			c12.6-14,34.17-15.14,48.17-2.53c14,12.6,15.14,34.17,2.53,48.17c-91.51,101.68-200.8,181.85-324.81,238.29
			C2080.88,2598.47,1943.71,2628.1,1801.56,2628.1z"/>
		<g>
			<g>
				<defs>
					<circle id="SVGID_00000053510494354061554780000017360439110714753156_" cx="2160.31" cy="1720.58" r="1030.7"/>
				</defs>
				<clipPath id="SVGID_00000130639958106384402760000018422627778878818993_">
					<use xlink:href="#SVGID_00000053510494354061554780000017360439110714753156_"  style="overflow:visible;"/>
				</clipPath>
				<g style="clip-path:url(#SVGID_00000130639958106384402760000018422627778878818993_);">
					
						<linearGradient id="SVGID_00000085238988917633976480000017475240301726620059_" gradientUnits="userSpaceOnUse" x1="2057.072" y1="1836.3519" x2="2740.7083" y2="1070.6794">
						<stop  offset="0" style="stop-color:#BF0500"/>
						<stop  offset="1" style="stop-color:#FF5559"/>
					</linearGradient>
					<path style="fill:url(#SVGID_00000085238988917633976480000017475240301726620059_);" d="M3203.64,1721.46
						c0,220.87-69.37,425.76-186.98,594.4c-0.46,0.69-2.12,1.36-2.12,2.05v0.03c-184.54,270.4-500.77,445.59-855.49,445.59
						c-29.01,0-56.8-1.36-85.21-5.28c-0.03,0-0.03,0-0.03,0c-0.12,0-0.17,1.73-0.29,1.73c-13.99-1.16-27.86-1.69-41.67-3.4
						c-4.91-0.58-9.82-0.77-14.71-1.47c-4.34-0.58-8.64-0.96-12.95-1.63c-3.76-0.55-7.48-1.02-11.18-1.62
						c-0.84-0.14-1.68-0.23-2.51-0.35c-9.1-1.5-18.18-3.06-27.22-4.8c-0.06,0-0.09-0.02-0.14-0.02
						c-482.28-92.13-846.68-516.11-846.68-1025.24c0-107.65,15.64-211.5,45.92-309.21c4.74-15.32,10.64-30.45,14.57-45.45v-0.03
						c11.78-25,19.67-49.53,30.51-73.6c4.36-9.62,9.19-19.19,13.78-28.67c25.4-52.07,55.17-101.72,88.54-148.51
						c3.03-4.25,6.18-8.47,9.28-12.69c12.37-16.82,25.27-33.23,38.65-49.27c20.03-24.04,41.11-47.19,63.19-69.33
						c57.48-57.68,121.67-108.69,191.29-151.71c21.53-13.32,43.61-25.89,66.15-37.63c54.59-28.49,111.98-52.28,171.72-70.83
						c98.02-30.49,202.23-46.9,310.28-46.9c248.49,0,476.7,86.81,655.93,231.76c131.83,106.63,239.05,244.68,306.5,402.78
						c15.09,35.31,25.28,71.61,40.98,108.77v0.03c0,0.17-1.8,0.29-1.74,0.46C3190.49,1516.46,3203.64,1617.17,3203.64,1721.46z"/>
					<g>
						<path class="st0" d="M2073.81,2761.76v-0.03h0.09l-0.06,0.03C2073.81,2761.76,2073.81,2761.76,2073.81,2761.76z"/>
						<path class="st0" d="M2387.73,2073.38c-22.4,31.56-91.69,72.07-44.68,151.66c46.61,79.38-3.24,94.27-35.31,86.84
							c-32.22-7.34-132.38-11.44-115.68,34.07c16.65,45.57,45.34,62.65,8.64,80.25c-36.67,17.51-52.19,63.26-89.73,126.23
							c-37.28,63.08-125.88,8.53-99.64,71.75c26.18,63.26,46.61,57.13,44.16,101.2c-0.58,12.11,7.46,24.54,18.32,36.35
							c-13.99-1.16-28.03-2.57-41.96-4.28c-4.91-0.58-9.82-1.21-14.71-1.91c-4.34-0.58-8.64-1.19-12.95-1.85
							c-3.76-0.55-7.48-1.13-11.18-1.73c-0.84-0.14-0.62-0.29-1.46-0.4c-8.96-1.5-13.61-3.12-25.39-4.83v-0.03
							c-7.85-7.46-2.93-15.55-1.75-24.27c11.7-81.38-100.57-137.3-119.39-194.31c-18.49-56.87-0.23-90.8-4.51-137.93
							c-4.39-47.05,10.99-109.44-16.08-149.08c-27.08-39.5-136.23-52.74-157.01-132.47c-20.92-79.56,27.74-198.7,46.64-218.99
							c18.67-20.29-90.38-112.59-142.28-115.53c-52.13-3.18-31.28-108.14-119.42-92.16c-88.31,15.49-246.97-33.78-214.2-86.78
							c27.05-43.66,72.45-139.98-75.77-182.92c4.74-15.32,10.61-30.46,14.54-45.46v-0.03c11.78-25,19.67-49.53,30.51-73.6
							c4.36-9.62,9.19-19.19,13.78-28.67c25.43-52.07,55.19-101.72,88.54-148.51c3.03-4.25,6.18-8.47,9.28-12.69
							c12.4-16.82,25.3-33.26,38.65-49.27c20.03-24.04,41.11-47.19,63.19-69.33c57.48-57.68,121.67-108.69,191.29-151.71
							c29.36,20.58,62.89,33.26,91.84,17.63c71-39.73,24.19-45.83-4.88-47.31c-7.57-0.38-14.91-3.38-20.81-7.95
							c54.59-28.49,111.98-52.28,171.71-70.83c-4.42,40.08-58.89,104.47-18.81,96.61c46.64-8.87,65.68-134.9,99.93-93.02
							c34.74,42.05-38,97.16,30.31,65.22c68.4-31.61,77.53-102.18,153.77-67.85c76.61,34.76,69.62,75.91,91,71.84
							c21.3-4.02,90.19,42.28,48.52,80.37c-42.05,38.2-80.6-10.46-143.62-25.14c-63.06-14.51-61.52,37.08-90.54,48.87
							c-29.51,11.39-171.83-57.39-206.77,4.77c-35.31,61.67-50.34,104.7,2.08,103.11c52.36-1.47,55.74-15.03,51.64,23.7
							c-4.19,38.75,5.35,67.77,52.8,31.33c47.31-36.38,36.7-71.87,73.69-54.53c37.02,17.4,41.38,1.65,80.74-26.93
							c39.33-28.58,91.09-31.56,104.64,32.57c13.58,64.15-9.62,78.54-78.81,81.78c-69.21,3.35-77.04-18.47-99.09,39.39
							c-21.93,57.88-113.48,132.21-193.85,162.84c-80.22,30.69-111.66,76.03-109.81,137.21c1.91,61.29-28.26,125.94-48.4,75.42
							c-20.23-50.66-76.93-135.97-134.78-78.95c-57.97,57.13-158.85,158.13-47.36,176.6c111.26,18.81,53.2-85.42,109.44-64.59
							c56.15,20.98-35.57,66.93,1.97,83.52c37.6,16.73,53.35,8.9,53.06,60.14c-0.29,51.21,12.45,100.94,58.09,79.21
							c45.6-21.64,104.18-122.04,170.15-62.65c66.06,59.53,61.38,51.79,96.03,34.45c34.62-17.31,56.67,34.59,70.86,58.23
							c14.19,23.61,69.85-0.49,114.96,69.85c45.08,70.34,62.77,82.88,114.18,57.57c51.44-25.29,72.36-6.5,85.77,29.01
							c13.35,35.52,45.02,0.81,60.28,47.74C2417.26,2049.08,2409.98,2041.8,2387.73,2073.38z"/>
						<g>
							<path class="st0" d="M2563.77,1221.21c-36.44-78.2,144.11-69.41,176.02-63.4c32.11,5.35,107.41-53.52,116.98-80.89
								c9.82-27.57,25.95-14.48,83.08-15.26c57.1-0.61,6.65-13.52-56.21-34.24c-62.74-20.66-9.1-22.74-66.93-68.4
								c-24.88-20-17.05-36.99-0.46-49.62c131.83,106.63,237.17,244.68,304.62,402.78c-1.91-0.58-3.7-0.9-5.37-0.92
								c-40-0.23-48.81-88.66-69.41-105.88c-20.32-17.19,0.58,48.58,5.55,75.6c5,27.05-10.95,4.31-30.89,29.13
								c-20.03,24.85-56.18,25.31-59.44-11.96c-3.32-37.19-29.53-73.72-82.73-90.71c-53.2-16.99-99.24-3.03-142.47,13.64
								C2693.09,1237.45,2600.47,1298.8,2563.77,1221.21z"/>
							<path class="st0" d="M3017.07,2317.92c3.61-26.85,9.51-54.59-1.71-64.73c-27.25-25.29-33.2-94.18-23.75-129.09
								c9.42-35,82.85-33,33.03-91.12c-49.97-58.29-94.99-127.47-74.01-167.03c20.98-39.5,14.62-42.39-24.71-42.16
								c-39.39,0.23-56.64,1.97-95.85-33.06c-39.24-35.49-93.23,83.75-240.92-11.88c-147.67-96.58-63.58-259.36-8.24-259.76
								c55.69-0.92,120.74-29.04,75.11-96.95c-45.49-68.17,25.6-77.79,60.34-62.3c34.79,15.32,96.49-25.84,159.37-44.39
								c63.03-18.47,60.25,84.21,95.25,104.76c35.2,20.58,101.14,4.25,135.42-28.64c24.48-23.47,29.82,3.9,54.01,29.88
								c28.49,95.02,43.78,195.73,43.78,300.02C3204.18,1943.23,3135.03,2148.87,3017.07,2317.92z"/>
							<path class="st0" d="M2752.9,1091.05c0.04-0.06,46.05-20.84,29.37-54.31c-16.53-33.48-42.74-136.07-61.89-103.74
								c-19.27,32.48,9.14,95.54,2.94,122.75C2717.05,1083.04,2716.89,1097.32,2752.9,1091.05z"/>
							<path class="st0" d="M2706.95,1059.73c-0.65-10.79,6.14-54.59-28.33-53.22c0.07-0.07-49.86,20.76-20.65,56.15
								C2687.31,1097.95,2707.7,1070.49,2706.95,1059.73z"/>
						</g>
					</g>
				</g>
				
					<linearGradient id="SVGID_00000030447580770230319330000011948664637147308721_" gradientUnits="userSpaceOnUse" x1="1119.7653" y1="1720.5847" x2="3200.8613" y2="1720.5847">
					<stop  offset="0" style="stop-color:#FFC444"/>
					<stop  offset="0.9964" style="stop-color:#F36F56"/>
				</linearGradient>
				
					<path style="opacity:0.3;clip-path:url(#SVGID_00000130639958106384402760000018422627778878818993_);fill:url(#SVGID_00000030447580770230319330000011948664637147308721_);" d="
					M3200.86,1719.64c0,220.87-67.98,425.76-185.59,594.4c-0.46,0.69-0.73,1.36-0.73,2.05v0.03
					c-188.47,270.4-502.15,444.76-856.88,444.76c-29.01,0-58.19-2.21-86.6-6.14c-0.03,0-0.03,0-0.03,0c-0.12,0-0.17,2.58-0.29,2.58
					c-13.99-1.16-27.86-1.3-41.67-3c-4.91-0.58-9.82-0.56-14.71-1.25c-4.33-0.58-8.64-0.86-12.95-1.52
					c-3.76-0.55-7.49-0.95-11.18-1.56c-0.84-0.14-1.68-0.21-2.51-0.33c-9.1-1.5-18.18-3.05-27.22-4.79c-0.06,0-0.09-0.01-0.14-0.01
					c-445.98-85.19-791.14-454.43-840.59-912.09c104.58,299.99,363.19,525.39,681.13,588.22h0.12c7.8,3.93,15.63,3.13,23.49,4.43
					c0.72,0.09,1.47,0.34,2.2,0.46c3.18,0.52,6.41,1.05,9.65,1.51c3.7,0.58,7.43,1.05,11.18,1.54c4.22,0.61,8.44,0.97,12.69,1.46
					c11.93,1.47,23.9,4.19,35.98,5.17c0.12,0,0.17,1.13,0.26,1.13c0,0,0,0,0.03,0c24.53,0,48.98,1.97,74.04,1.97
					c153.16,0,297.51-38.94,423.79-106.13c126.28-67.19,234.51-164.06,315.42-280.81c0-0.61,0.98-1.42,1.36-2.03
					c101.58-145.62,161.02-322.68,161.02-513.4c0-90.05-13.22-177.09-37.84-259.13c-0.03-0.14-0.36-0.32-0.36-0.46v-0.03
					c-7.85-32.08-20.5-63.43-33.51-93.92c-58.26-136.54-148.98-255.75-262.84-347.82c-83.34-67.42-178.93-120.25-282.93-154.66
					c210.67,19.39,403.22,101.43,558.84,227.28c131.83,106.63,238.48,244.68,305.93,402.78c15.08,35.31,24.7,71.61,40.41,108.77
					v0.03c0,0.17-1.22,0.29-1.17,0.46C3187.14,1514.63,3200.86,1615.34,3200.86,1719.64z"/>
			</g>
		</g>
		<g>
			<g>
				
					<linearGradient id="SVGID_00000086671728041357823070000004612503628821051292_" gradientUnits="userSpaceOnUse" x1="375.2498" y1="1935.4536" x2="1398.8654" y2="1887.2836">
					<stop  offset="0" style="stop-color:#311944"/>
					<stop  offset="1" style="stop-color:#6B3976"/>
				</linearGradient>
				<path style="fill:url(#SVGID_00000086671728041357823070000004612503628821051292_);" d="M1235.86,1728.98
					c-9.89,7.97-2.32,23.99-12.44,72.67c-4.63,22.27-10.67,40.38-15.51,53.11c-3.45,11.75-6.93,22.58-10.34,32.06
					c-2.5,6.95-4.65,12.34-7.19,18.01c-4.71,10.51-10.22,20.72-16.36,30.35c-0.41,0.64-0.25,1.47,0.33,1.92
					c0.03,0.03,0.07,0.05,0.11,0.08c0.67,0.43,1.57,0.23,2-0.44c6.23-9.74,11.8-20.08,16.57-30.72c2.57-5.74,4.75-11.19,7.27-18.21
					c1.8-5,3.61-10.39,5.43-16.05c-2.3,15.57-6.26,32.41-17.38,53.4c-33.73,63.72,7.55,121.9,48.63,134.32
					c47.38,14.32,89.56-15.34,102.78-25.19c53.28-39.72,81.94-119.34,59.13-188.75C1369.01,1754.58,1260.1,1709.45,1235.86,1728.98z
					"/>
				
					<linearGradient id="SVGID_00000140015777658072055010000015539584410089450420_" gradientUnits="userSpaceOnUse" x1="379.6115" y1="2028.1542" x2="1403.228" y2="1979.9841">
					<stop  offset="0" style="stop-color:#311944"/>
					<stop  offset="1" style="stop-color:#6B3976"/>
				</linearGradient>
				<path style="fill:url(#SVGID_00000140015777658072055010000015539584410089450420_);" d="M1340.29,1825.33
					c-0.11-8.11-1.47-41.43-24.83-68.08c-44.33-50.56-138.04-43.04-198.52-12.32c-63.29,32.15-49.81,69.02-113.5,106.4
					c-69.17,40.6-101.79,6.8-192,40.04c-35.48,13.07-131.11,48.3-158.89,134.3c-24,74.31,10.07,163.59,67.95,209.47
					c99.1,78.55,262,25.17,349.08-39.95c83.51-62.46,45.66-92.66,174.65-221.56C1290.85,1927.02,1341.1,1885.97,1340.29,1825.33z"/>
				<g>
					
						<linearGradient id="SVGID_00000100369008178523591270000013618377878616003464_" gradientUnits="userSpaceOnUse" x1="3582.6333" y1="1086.7609" x2="3736.0596" y2="1086.7609" gradientTransform="matrix(-0.7538 0.6571 0.6571 0.7538 3872.647 -1136.278)">
						<stop  offset="0" style="stop-color:#FFC444"/>
						<stop  offset="0.9964" style="stop-color:#F36F56"/>
					</linearGradient>
					<path style="fill:url(#SVGID_00000100369008178523591270000013618377878616003464_);" d="M1813.3,2069.28l11.9-7.62
						c0,0,18.05-17.11,30.68-24.68s23.63-7.55,33.5,3.76c9.86,11.32-2.73,24.74-13.51,36.5c-6.56,7.15-21.81,9.65-34.29,10.57
						c-8.78,0.65-25.45,8.9-25.45,8.9L1813.3,2069.28z"/>
					
						<linearGradient id="SVGID_00000051359032696504132440000002562447351855367819_" gradientUnits="userSpaceOnUse" x1="4575.6919" y1="1396.0643" x2="4982.0093" y2="1618.2235" gradientTransform="matrix(-0.8462 0.5328 0.5328 0.8462 4790.6885 -1812.6685)">
						<stop  offset="0" style="stop-color:#0080F9"/>
						<stop  offset="0.9964" style="stop-color:#2365D7"/>
					</linearGradient>
					<path style="fill:url(#SVGID_00000051359032696504132440000002562447351855367819_);" d="M1273.06,2029.19
						c17.45-10.72,12.91-27.15,24.29-31.09c32.76-11.35,87.06,119.06,187.23,159.99c18.48,7.55,33.5,10.89,47.68,6.45
						c34.03-10.66,41.85-64.74,144.5-95.67c52.06-15.68,96.89-21.76,127.06-24.42c2.98,4.61,6.02,9.68,9,15.21
						c2.02,3.75,4.88,9.31,8.67,17.99c3.65,8.35,8.92,21.32,14.56,38.71c-18.72,35.72-56.26,95.79-124.52,146.92
						c-24.66,18.47-76.18,56.22-152.81,72.16c-97.14,20.21-234.22,5.32-267.67-66.92c-6.52-14.09-2.35-15.77-7.67-44.84
						c-21.04-114.97-103.45-182.25-89.01-198.04C1204.35,2014.69,1243.09,2047.61,1273.06,2029.19z"/>
				</g>
				
					<linearGradient id="SVGID_00000165933870397508310590000016391692573000989859_" gradientUnits="userSpaceOnUse" x1="1337.542" y1="2286.9861" x2="2178.3545" y2="2819.7773" gradientTransform="matrix(-1 -5.000000e-04 -5.000000e-04 1 2623.4817 58.9304)">
					<stop  offset="0" style="stop-color:#0080F9"/>
					<stop  offset="0.9964" style="stop-color:#2365D7"/>
				</linearGradient>
				<path style="fill:url(#SVGID_00000165933870397508310590000016391692573000989859_);" d="M1364.59,2066.19
					c30.29,51.82,28.57,104.37,26.11,127.42c-7.67,71.71-49.25,121.17-59.41,134.35c-48.03,62.3-72.21,203.11,27.48,545.14
					c-20.26,9.65-104.17,97.96-118.77,41.59c-19.9-76.85-67.14-593.85-48.31,9.32c0.25,7.95-15.92,2.23-24.17,3.11
					c-59.1,6.35-127.65,4.45-201.03-15.29c-115.02-30.94-192.94-92.53-233-129.55c50.31-65.43,108.73-156.44,153.71-273.54
					c85.81-223.38,77.25-423.41,63.8-533.54c41.91-15.51,172.93-57.97,300.49-0.8C1283.29,1988.65,1332.69,2011.61,1364.59,2066.19z
					"/>
				
					<linearGradient id="SVGID_00000106131799834084955290000010639305662113746579_" gradientUnits="userSpaceOnUse" x1="1222.4747" y1="2068.1074" x2="1286.7019" y2="1353.584">
					<stop  offset="0" style="stop-color:#FFC444"/>
					<stop  offset="0.9964" style="stop-color:#F36F56"/>
				</linearGradient>
				<path style="fill:url(#SVGID_00000106131799834084955290000010639305662113746579_);" d="M1241.47,1883.62
					c5.63,26.76,7.92,59.01-10.07,75.66c-10.96,10.14-25.69,13.58-40.16,16.68c-34.19,7.31-46.71-2.41-55.04,5.21
					c-18.33,16.76-0.64,103.1,58.53,125.34c58.89,22.13,130.6-29.86,128.61-60.08c-1.8-27.26-63.46-34.63-65.99-69.15
					c-1.28-17.38,13.1-32.64,24.8-42.47l6.98,2.45L1241.47,1883.62z"/>
				
					<linearGradient id="SVGID_00000072973507242817120350000007672088234900887472_" gradientUnits="userSpaceOnUse" x1="1695.9846" y1="1817.507" x2="1691.8275" y2="2152.4426" gradientTransform="matrix(0.9898 0.1424 -0.1486 1.0324 -118.2977 -261.0498)">
					<stop  offset="0" style="stop-color:#FFC444"/>
					<stop  offset="0.9964" style="stop-color:#F36F56"/>
				</linearGradient>
				<path style="fill:url(#SVGID_00000072973507242817120350000007672088234900887472_);" d="M1253.19,1911.86
					c0,0-1.51,31.53,29.23,36.25c37.88,5.81,56.9-93.59,48.53-100.67c-9.71-8.21-21.46,6.64-45.51-2.71
					c-10.12-3.94-17.18-18.75-24.64-5.02c-8.49,15.63-7.72,45.62-7.72,45.62s-7.91-8.76-10.61-0.03
					C1238.94,1896.74,1246.63,1905.34,1253.19,1911.86z"/>
				
					<linearGradient id="SVGID_00000106841064414989086070000016642081195479188105_" gradientUnits="userSpaceOnUse" x1="372.9403" y1="1886.3949" x2="1396.5504" y2="1838.2251">
					<stop  offset="0" style="stop-color:#311944"/>
					<stop  offset="1" style="stop-color:#6B3976"/>
				</linearGradient>
				<path style="fill:url(#SVGID_00000106841064414989086070000016642081195479188105_);" d="M1329.26,1812.06
					c10.21,14.05,13.32,38.84,3.21,49.57c-14.53,15.41-47.3-7.78-64.9,11.1c-7.72,8.28-9.24,21.13-12.51,20.43
					c-2.7-0.58-3-9.68-3.49-17.21c-2.7-41.49-12.06-47.49-7.3-58.55C1253.95,1794.91,1308.29,1783.21,1329.26,1812.06z"/>
				<g>
					
						<linearGradient id="SVGID_00000034812676323799087130000017442598139759182993_" gradientUnits="userSpaceOnUse" x1="-646.4736" y1="1842.2279" x2="-493.0526" y2="1842.2279" gradientTransform="matrix(-0.987 -0.1609 -0.1609 0.987 841.8695 585.1937)">
						<stop  offset="0" style="stop-color:#0080F9"/>
						<stop  offset="0.9964" style="stop-color:#2365D7"/>
					</linearGradient>
					<path style="fill:url(#SVGID_00000034812676323799087130000017442598139759182993_);" d="M1112.22,2471.95l13.46,4.29
						c0,0,24.69,2.98,38.58,7.86c13.89,4.89,20.9,13.37,18.48,28.19c-2.42,14.82-20.79,13.69-36.72,12.9
						c-9.69-0.48-21.35-10.63-30.03-19.65c-6.1-6.34-23.1-13.91-23.1-13.91L1112.22,2471.95z"/>
					
						<linearGradient id="SVGID_00000008134621484446287500000000753565747732052117_" gradientUnits="userSpaceOnUse" x1="1494.2402" y1="1901.4049" x2="1737.3552" y2="2179.4429" gradientTransform="matrix(-0.9987 0.0771 0.0565 1.1277 2449.7922 -119.4439)">
						<stop  offset="0" style="stop-color:#0080F9"/>
						<stop  offset="0.9964" style="stop-color:#2365D7"/>
					</linearGradient>
					<path style="fill:url(#SVGID_00000008134621484446287500000000753565747732052117_);" d="M1066.32,1982.56
						c-40.21-43.33-204.15,54.84-304.84,188.1c-31.96,42.29-37.64,141.98,10.93,200.62c56.7,68.46,128.74,96.27,164.79,110.19
						c63.56,24.53,118.09,29.07,151.38,29.42c7.14-6.63,15.04-15.03,22.73-25.48c7.03-9.56,12.41-18.8,16.52-27.04
						c-13.14-31.7-36.49-77.66-78.42-122.12c-26.59-28.19-44.49-38.63-86.55-71.74c-86.44-68.04-84.23-19.41-72.19-47.52
						c39.65-92.61,155.37-72.26,180.71-165.1C1073.15,2045.36,1084.38,2002.02,1066.32,1982.56z"/>
				</g>
				
					<linearGradient id="SVGID_00000181051145103318173460000006545065377693814937_" gradientUnits="userSpaceOnUse" x1="377.0497" y1="1973.7227" x2="1400.6641" y2="1925.5526">
					<stop  offset="0" style="stop-color:#311944"/>
					<stop  offset="1" style="stop-color:#6B3976"/>
				</linearGradient>
				<path style="fill:url(#SVGID_00000181051145103318173460000006545065377693814937_);" d="M1260.81,1839.71
					c7.03,10.41-15.87,38.04-61.95,92.88c-28.36,33.75-42.54,50.63-51.08,57.57c-45.96,37.37-117.64,60.78-184.59,47.02
					c-45.94-9.44-50.09-28.25-88.99-27.54c-58.7,1.07-98.59,44.77-100.81,41.83c-2.45-3.25,43.76-59.91,125.71-100.72
					c67.06-33.4,81.69-18.16,185.91-62.73c7.56-3.23,39.58-17.04,83.79-31.37C1220.76,1839.81,1253.81,1829.36,1260.81,1839.71z"/>
			</g>
			<g>
				<g>
					<g>
						<polygon class="st17" points="2144.16,3167.24 1070.01,3206.84 1070.01,2512.71 2144.16,2563.61 						"/>
						<polygon class="st18" points="2105.25,3122.87 1120.88,3152.91 1120.88,2556.41 2105.25,2598.1 						"/>
						<g>
							<g>
								<polygon class="st18" points="1242.28,3149.2 1191.81,3150.74 1191.81,2559.41 1242.28,2561.55 								"/>
								<polygon class="st17" points="1244.24,3149.14 1210.68,3150.17 1210.68,2560.21 1244.24,2561.63 								"/>
							</g>
							<g>
								<polygon class="st18" points="1368.13,3145.36 1319.23,3146.86 1319.23,2564.81 1368.13,2566.88 								"/>
								<polygon class="st17" points="1370.04,3145.31 1337.52,3146.3 1337.52,2565.58 1370.04,2566.96 								"/>
							</g>
							<g>
								<polygon class="st18" points="1490.12,3141.64 1442.71,3143.09 1442.71,2570.04 1490.12,2572.05 								"/>
								<polygon class="st17" points="1491.97,3141.59 1460.44,3142.55 1460.44,2570.79 1491.97,2572.13 								"/>
							</g>
							<g>
								<polygon class="st18" points="1608.42,3138.03 1562.44,3139.44 1562.44,2575.11 1608.42,2577.06 								"/>
								<polygon class="st17" points="1610.21,3137.98 1579.63,3138.91 1579.63,2575.84 1610.21,2577.13 								"/>
							</g>
							<g>
								<polygon class="st18" points="1723.19,3134.53 1678.57,3135.89 1678.57,2580.03 1723.19,2581.92 								"/>
								<polygon class="st17" points="1724.93,3134.48 1695.26,3135.38 1695.26,2580.73 1724.93,2581.99 								"/>
							</g>
							<g>
								<polygon class="st18" points="1834.59,3131.13 1791.28,3132.45 1791.28,2584.8 1834.59,2586.64 								"/>
								<polygon class="st17" points="1836.27,3131.08 1807.47,3131.96 1807.47,2585.49 1836.27,2586.71 								"/>
							</g>
							<g>
								<polygon class="st18" points="1942.76,3127.83 1900.7,3129.12 1900.7,2589.44 1942.76,2591.22 								"/>
								<polygon class="st17" points="1944.4,3127.78 1916.42,3128.64 1916.42,2590.1 1944.4,2591.29 								"/>
							</g>
							<g>
								<polygon class="st18" points="2047.85,3124.63 2006.98,3125.87 2006.98,2593.94 2047.85,2595.67 								"/>
								<polygon class="st17" points="2049.44,3124.58 2022.26,3125.41 2022.26,2594.58 2049.44,2595.74 								"/>
							</g>
						</g>
					</g>
					<g>
						<polygon class="st19" points="1070.01,3206.84 526.11,3185.35 526.11,2556.41 1070.01,2512.71 						"/>
						<polygon class="st18" points="541.22,3166.11 541.22,2575.03 1051.72,2535.93 1051.72,3184.36 						"/>
						<g>
							<g>
								<g>
									<polygon class="st19" points="1043.81,3171 788.34,3162.45 788.34,2568.6 1043.81,2549.61 									"/>
									<polygon class="st19" points="780.98,3162.2 547.81,3154.39 547.81,2586.47 780.98,2569.15 									"/>
								</g>
								<g class="st20">
									<polygon class="st21" points="780.98,2789.99 547.81,2797.96 547.81,2748.31 780.98,2738.15 									"/>
									<polygon class="st21" points="780.98,2993.2 547.81,2992.56 547.81,2942.91 780.98,2941.36 									"/>
								</g>
							</g>
							<g class="st20">
								<polygon class="st21" points="1043.81,2781.01 788.34,2789.74 788.34,2737.83 1043.81,2726.69 								"/>
								<polygon class="st21" points="1043.81,2993.93 788.34,2993.22 788.34,2941.31 1043.81,2939.61 								"/>
							</g>
						</g>
						<g>
							<g>
								<polygon class="st17" points="661.6,3167.32 649.38,3166.89 649.38,2563.73 661.6,2562.78 								"/>
								<polygon class="st19" points="649.38,3166.89 649.38,2563.73 655.48,2563.26 								"/>
								<polygon class="st17" points="666.25,2580.7 644.76,2582.28 644.76,2550.6 666.25,2548.89 								"/>
								<polygon class="st17" points="666.25,3183.38 644.76,3182.56 644.76,3150.88 666.25,3151.57 								"/>
							</g>
							<g>
								<polygon class="st17" points="835.63,3173.44 822.6,3172.98 822.6,2550.36 835.63,2549.36 								"/>
								<polygon class="st19" points="822.6,3172.98 822.6,2550.36 829.11,2549.86 								"/>
								<polygon class="st17" points="840.58,2567.84 817.68,2569.53 817.68,2536.83 840.58,2535 								"/>
								<polygon class="st17" points="840.58,3190.03 817.68,3189.16 817.68,3156.45 840.58,3157.19 								"/>
							</g>
							<g>
								<polygon class="st17" points="926.93,3176.65 913.47,3176.18 913.47,2543.35 926.93,2542.32 								"/>
								<polygon class="st19" points="913.47,3176.18 913.47,2543.35 920.19,2542.84 								"/>
								<polygon class="st17" points="932.04,2561.1 908.39,2562.84 908.39,2529.6 932.04,2527.72 								"/>
								<polygon class="st17" points="932.04,3193.52 908.39,3192.62 908.39,3159.38 932.04,3160.14 								"/>
							</g>
							<g>
								<polygon class="st17" points="747.23,3170.33 734.62,3169.88 734.62,2557.15 747.23,2556.18 								"/>
								<polygon class="st19" points="734.62,3169.88 734.62,2557.15 740.92,2556.67 								"/>
								<polygon class="st17" points="752.02,2574.37 729.85,2576.01 729.85,2543.82 752.02,2542.06 								"/>
								<polygon class="st17" points="752.02,3186.65 729.85,3185.81 729.85,3153.62 752.02,3154.34 								"/>
							</g>
						</g>
					</g>
				</g>
			</g>
			
				<linearGradient id="SVGID_00000000920803584969897550000014242147880304954786_" gradientUnits="userSpaceOnUse" x1="982.476" y1="2179.1133" x2="1871.2927" y2="2179.1133">
				<stop  offset="0" style="stop-color:#444B8C"/>
				<stop  offset="0.9964" style="stop-color:#26264F"/>
			</linearGradient>
			<path style="fill:url(#SVGID_00000000920803584969897550000014242147880304954786_);" d="M989.31,2301.75
				c-3.03,0-5.79-2.02-6.6-5.09c-0.96-3.65,1.21-7.39,4.86-8.36l875.14-231.61c3.34-0.87,6.8,0.85,8.09,4.05
				c1.29,3.19,0,6.85-3.01,8.53l-357.59,199.59c-3.3,1.84-7.46,0.66-9.3-2.64c-1.84-3.3-0.66-7.46,2.64-9.3l310.15-173.11
				l-822.62,217.71C990.48,2301.68,989.89,2301.75,989.31,2301.75z"/>
			
				<linearGradient id="SVGID_00000127726946277335417430000005379890064307732880_" gradientUnits="userSpaceOnUse" x1="1880.7756" y1="2198.1531" x2="2581.95" y2="2198.1531">
				<stop  offset="0" style="stop-color:#444B8C"/>
				<stop  offset="0.9964" style="stop-color:#26264F"/>
			</linearGradient>
			<path style="fill:url(#SVGID_00000127726946277335417430000005379890064307732880_);" d="M2291.95,2339.84
				c-1.3,0-2.62-0.37-3.79-1.15l-404.35-269.7c-2.89-1.93-3.88-5.72-2.29-8.81c1.59-3.09,5.24-4.5,8.49-3.27l687.5,259.14
				c3.53,1.33,5.32,5.28,3.99,8.81c-1.33,3.53-5.27,5.31-8.81,3.99l-631.57-238.06l354.62,236.53c3.14,2.1,3.99,6.34,1.89,9.48
				C2296.33,2338.77,2294.16,2339.84,2291.95,2339.84z"/>
			<g>
				<g>
					
						<linearGradient id="SVGID_00000021822478289538951680000016472460059499165887_" gradientUnits="userSpaceOnUse" x1="2252.5435" y1="2323.4312" x2="1642.6633" y2="3132.3699">
						<stop  offset="0" style="stop-color:#0080F9"/>
						<stop  offset="0.9964" style="stop-color:#2365D7"/>
					</linearGradient>
					<polygon style="fill:url(#SVGID_00000021822478289538951680000016472460059499165887_);" points="2594.38,2909.66 
						1520.23,2949.26 1520.23,2255.12 2594.38,2306.03 					"/>
					
						<linearGradient id="SVGID_00000095308218970057463850000004205498803284996268_" gradientUnits="userSpaceOnUse" x1="2382.2654" y1="2188.4692" x2="1392.0669" y2="3410.2722">
						<stop  offset="0" style="stop-color:#0080F9"/>
						<stop  offset="0.9964" style="stop-color:#2365D7"/>
					</linearGradient>
					<polygon style="opacity:0.3;fill:url(#SVGID_00000095308218970057463850000004205498803284996268_);" points="2555.47,2865.29 
						1571.1,2895.33 1571.1,2298.83 2555.47,2340.52 					"/>
					<g>
						<g>
							
								<linearGradient id="SVGID_00000033334387119375891300000008353665876045519241_" gradientUnits="userSpaceOnUse" x1="1823.1334" y1="2404.3997" x2="1361.8514" y2="2973.5742">
								<stop  offset="0" style="stop-color:#0080F9"/>
								<stop  offset="0.9964" style="stop-color:#2365D7"/>
							</linearGradient>
							<polygon style="opacity:0.6;fill:url(#SVGID_00000033334387119375891300000008353665876045519241_);" points="
								1692.5,2891.62 1642.03,2893.16 1642.03,2301.83 1692.5,2303.97 							"/>
							
								<linearGradient id="SVGID_00000069372303363651736370000002237315597250360227_" gradientUnits="userSpaceOnUse" x1="2106.0903" y1="2028.8644" x2="1415.1183" y2="2945.3628">
								<stop  offset="0" style="stop-color:#0080F9"/>
								<stop  offset="0.9964" style="stop-color:#2365D7"/>
							</linearGradient>
							<polygon style="fill:url(#SVGID_00000069372303363651736370000002237315597250360227_);" points="1694.47,2891.56 
								1660.91,2892.59 1660.91,2302.63 1694.47,2304.05 							"/>
						</g>
						<g>
							
								<linearGradient id="SVGID_00000002384362305059845410000012715013974295412637_" gradientUnits="userSpaceOnUse" x1="1947.1919" y1="2408.3633" x2="1493.5879" y2="2968.064">
								<stop  offset="0" style="stop-color:#0080F9"/>
								<stop  offset="0.9964" style="stop-color:#2365D7"/>
							</linearGradient>
							<polygon style="opacity:0.6;fill:url(#SVGID_00000002384362305059845410000012715013974295412637_);" points="
								1818.36,2887.78 1769.45,2889.27 1769.45,2307.23 1818.36,2309.3 							"/>
							
								<linearGradient id="SVGID_00000177477844134949143270000005825703235500667820_" gradientUnits="userSpaceOnUse" x1="2172.2231" y1="2109.4575" x2="1492.488" y2="3011.051">
								<stop  offset="0" style="stop-color:#0080F9"/>
								<stop  offset="0.9964" style="stop-color:#2365D7"/>
							</linearGradient>
							<polygon style="fill:url(#SVGID_00000177477844134949143270000005825703235500667820_);" points="1820.26,2887.72 
								1787.74,2888.72 1787.74,2308 1820.26,2309.38 							"/>
						</g>
						<g>
							
								<linearGradient id="SVGID_00000108285075877643959010000014478214251042282683_" gradientUnits="userSpaceOnUse" x1="2067.4307" y1="2412.199" x2="1621.2544" y2="2962.7346">
								<stop  offset="0" style="stop-color:#0080F9"/>
								<stop  offset="0.9964" style="stop-color:#2365D7"/>
							</linearGradient>
							<polygon style="opacity:0.6;fill:url(#SVGID_00000108285075877643959010000014478214251042282683_);" points="
								1940.34,2884.06 1892.94,2885.51 1892.94,2312.46 1940.34,2314.46 							"/>
							
								<linearGradient id="SVGID_00000049921005968649283440000017514235746289759154_" gradientUnits="userSpaceOnUse" x1="2236.3928" y1="2187.4724" x2="1567.5352" y2="3074.6382">
								<stop  offset="0" style="stop-color:#0080F9"/>
								<stop  offset="0.9964" style="stop-color:#2365D7"/>
							</linearGradient>
							<polygon style="fill:url(#SVGID_00000049921005968649283440000017514235746289759154_);" points="1942.19,2884 
								1910.67,2884.97 1910.67,2313.21 1942.19,2314.54 							"/>
						</g>
						<g>
							
								<linearGradient id="SVGID_00000026880535917230352050000014604664446734925757_" gradientUnits="userSpaceOnUse" x1="2184.0229" y1="2415.9131" x2="1745.0364" y2="2957.5774">
								<stop  offset="0" style="stop-color:#0080F9"/>
								<stop  offset="0.9964" style="stop-color:#2365D7"/>
							</linearGradient>
							<polygon style="opacity:0.6;fill:url(#SVGID_00000026880535917230352050000014604664446734925757_);" points="
								2058.64,2880.45 2012.66,2881.85 2012.66,2317.53 2058.64,2319.48 							"/>
							
								<linearGradient id="SVGID_00000087395705042101559450000017663813959449610166_" gradientUnits="userSpaceOnUse" x1="2298.6855" y1="2263.0305" x2="1640.3632" y2="3136.2227">
								<stop  offset="0" style="stop-color:#0080F9"/>
								<stop  offset="0.9964" style="stop-color:#2365D7"/>
							</linearGradient>
							<polygon style="fill:url(#SVGID_00000087395705042101559450000017663813959449610166_);" points="2060.43,2880.4 
								2029.85,2881.33 2029.85,2318.26 2060.43,2319.55 							"/>
						</g>
						<g>
							
								<linearGradient id="SVGID_00000179605825423661588100000008487045317969754789_" gradientUnits="userSpaceOnUse" x1="2297.1335" y1="2419.511" x2="1865.1088" y2="2952.585">
								<stop  offset="0" style="stop-color:#0080F9"/>
								<stop  offset="0.9964" style="stop-color:#2365D7"/>
							</linearGradient>
							<polygon style="opacity:0.6;fill:url(#SVGID_00000179605825423661588100000008487045317969754789_);" points="
								2173.41,2876.95 2128.8,2878.31 2128.8,2322.45 2173.41,2324.34 							"/>
							
								<linearGradient id="SVGID_00000173869437079208468290000002961597801906863011_" gradientUnits="userSpaceOnUse" x1="2359.1826" y1="2336.2466" x2="1711.0695" y2="3195.897">
								<stop  offset="0" style="stop-color:#0080F9"/>
								<stop  offset="0.9964" style="stop-color:#2365D7"/>
							</linearGradient>
							<polygon style="fill:url(#SVGID_00000173869437079208468290000002961597801906863011_);" points="2175.15,2876.9 
								2145.48,2877.8 2145.48,2323.15 2175.15,2324.41 							"/>
						</g>
						<g>
							
								<linearGradient id="SVGID_00000137127171143051167910000015283905463156144807_" gradientUnits="userSpaceOnUse" x1="2406.9148" y1="2422.9983" x2="1981.6359" y2="2947.7488">
								<stop  offset="0" style="stop-color:#0080F9"/>
								<stop  offset="0.9964" style="stop-color:#2365D7"/>
							</linearGradient>
							<polygon style="opacity:0.6;fill:url(#SVGID_00000137127171143051167910000015283905463156144807_);" points="
								2284.81,2873.55 2241.5,2874.87 2241.5,2327.22 2284.81,2329.05 							"/>
							
								<linearGradient id="SVGID_00000021097857529343728170000002184132953650875030_" gradientUnits="userSpaceOnUse" x1="2417.9597" y1="2407.2275" x2="1779.7449" y2="3253.7495">
								<stop  offset="0" style="stop-color:#0080F9"/>
								<stop  offset="0.9964" style="stop-color:#2365D7"/>
							</linearGradient>
							<polygon style="fill:url(#SVGID_00000021097857529343728170000002184132953650875030_);" points="2286.5,2873.5 
								2257.69,2874.38 2257.69,2327.9 2286.5,2329.12 							"/>
						</g>
						<g>
							
								<linearGradient id="SVGID_00000031907238245874793520000007782930995437576368_" gradientUnits="userSpaceOnUse" x1="2513.5125" y1="2426.3792" x2="2094.7715" y2="2943.0625">
								<stop  offset="0" style="stop-color:#0080F9"/>
								<stop  offset="0.9964" style="stop-color:#2365D7"/>
							</linearGradient>
							<polygon style="opacity:0.6;fill:url(#SVGID_00000031907238245874793520000007782930995437576368_);" points="
								2392.98,2870.25 2350.92,2871.53 2350.92,2331.85 2392.98,2333.63 							"/>
							
								<linearGradient id="SVGID_00000027602585697848811410000014987833730333245574_" gradientUnits="userSpaceOnUse" x1="2475.0898" y1="2476.074" x2="1846.4751" y2="3309.8621">
								<stop  offset="0" style="stop-color:#0080F9"/>
								<stop  offset="0.9964" style="stop-color:#2365D7"/>
							</linearGradient>
							<polygon style="fill:url(#SVGID_00000027602585697848811410000014987833730333245574_);" points="2394.62,2870.2 
								2366.65,2871.05 2366.65,2332.52 2394.62,2333.7 							"/>
						</g>
						<g>
							
								<linearGradient id="SVGID_00000044885771879820316570000004493414548304947340_" gradientUnits="userSpaceOnUse" x1="2617.062" y1="2429.6599" x2="2204.6626" y2="2938.5183">
								<stop  offset="0" style="stop-color:#0080F9"/>
								<stop  offset="0.9964" style="stop-color:#2365D7"/>
							</linearGradient>
							<polygon style="opacity:0.6;fill:url(#SVGID_00000044885771879820316570000004493414548304947340_);" points="
								2498.07,2867.04 2457.2,2868.29 2457.2,2336.35 2498.07,2338.09 							"/>
							
								<linearGradient id="SVGID_00000170968501159324247780000006089119761508891831_" gradientUnits="userSpaceOnUse" x1="2530.6409" y1="2542.8806" x2="1911.3423" y2="3364.312">
								<stop  offset="0" style="stop-color:#0080F9"/>
								<stop  offset="0.9964" style="stop-color:#2365D7"/>
							</linearGradient>
							<polygon style="fill:url(#SVGID_00000170968501159324247780000006089119761508891831_);" points="2499.66,2867 
								2472.48,2867.82 2472.48,2337 2499.66,2338.15 							"/>
						</g>
					</g>
				</g>
				<g>
					
						<linearGradient id="SVGID_00000128480799972189350450000015691867549023621002_" gradientUnits="userSpaceOnUse" x1="1483.3838" y1="2278.3965" x2="1050.5861" y2="2914.6943">
						<stop  offset="0" style="stop-color:#0080F9"/>
						<stop  offset="0.9964" style="stop-color:#2365D7"/>
					</linearGradient>
					<polygon style="fill:url(#SVGID_00000128480799972189350450000015691867549023621002_);" points="1520.23,2949.26 
						976.33,2927.76 976.33,2298.83 1520.23,2255.12 					"/>
					
						<linearGradient id="SVGID_00000071543981127875668100000014435642110028285061_" gradientUnits="userSpaceOnUse" x1="1466.2156" y1="2299.366" x2="1060.4755" y2="2895.8835">
						<stop  offset="3.597120e-03" style="stop-color:#E38DDD"/>
						<stop  offset="1" style="stop-color:#9571F6"/>
					</linearGradient>
					<polygon style="opacity:0.3;fill:url(#SVGID_00000071543981127875668100000014435642110028285061_);" points="991.44,2908.53 
						991.44,2317.45 1501.94,2278.35 1501.94,2926.78 					"/>
					<g>
						<g>
							<g>
								
									<linearGradient id="SVGID_00000022537272931071337380000016901777344585379997_" gradientUnits="userSpaceOnUse" x1="1475.1801" y1="2372.2031" x2="1186.9441" y2="3007.563">
									<stop  offset="0" style="stop-color:#0080F9"/>
									<stop  offset="0.9964" style="stop-color:#2365D7"/>
								</linearGradient>
								<polygon style="fill:url(#SVGID_00000022537272931071337380000016901777344585379997_);" points="1494.03,2913.42 
									1238.56,2904.87 1238.56,2311.02 1494.03,2292.03 								"/>
								
									<linearGradient id="SVGID_00000074408269810888687150000006510977028877026205_" gradientUnits="userSpaceOnUse" x1="1268.3273" y1="2277.9307" x2="995.0027" y2="2880.4207">
									<stop  offset="0" style="stop-color:#0080F9"/>
									<stop  offset="0.9964" style="stop-color:#2365D7"/>
								</linearGradient>
								<polygon style="fill:url(#SVGID_00000074408269810888687150000006510977028877026205_);" points="1231.2,2904.62 
									998.03,2896.81 998.03,2328.89 1231.2,2311.56 								"/>
							</g>
							<g>
								
									<linearGradient id="SVGID_00000140713861406036237610000012672467637889684864_" gradientUnits="userSpaceOnUse" x1="1107.0272" y1="2554.8254" x2="1122.329" y2="2467.605">
									<stop  offset="0" style="stop-color:#0080F9"/>
									<stop  offset="0.9964" style="stop-color:#2365D7"/>
								</linearGradient>
								<polygon style="opacity:0.3;fill:url(#SVGID_00000140713861406036237610000012672467637889684864_);" points="
									1231.2,2532.4 998.03,2540.37 998.03,2490.73 1231.2,2480.56 								"/>
								
									<linearGradient id="SVGID_00000134956573344035573910000015717761318525370240_" gradientUnits="userSpaceOnUse" x1="1107.6923" y1="2749.9436" x2="1121.6854" y2="2670.1819">
									<stop  offset="0" style="stop-color:#0080F9"/>
									<stop  offset="0.9964" style="stop-color:#2365D7"/>
								</linearGradient>
								<polygon style="opacity:0.3;fill:url(#SVGID_00000134956573344035573910000015717761318525370240_);" points="
									1231.2,2735.62 998.03,2734.97 998.03,2685.33 1231.2,2683.78 								"/>
							</g>
						</g>
						<g>
							
								<linearGradient id="SVGID_00000026842585516829758870000011576094894607057570_" gradientUnits="userSpaceOnUse" x1="1358.1716" y1="2548.1365" x2="1374.5597" y2="2454.7244">
								<stop  offset="0" style="stop-color:#0080F9"/>
								<stop  offset="0.9964" style="stop-color:#2365D7"/>
							</linearGradient>
							<polygon style="opacity:0.3;fill:url(#SVGID_00000026842585516829758870000011576094894607057570_);" points="
								1494.03,2523.42 1238.56,2532.15 1238.56,2480.24 1494.03,2469.11 							"/>
							
								<linearGradient id="SVGID_00000110470489703006870640000008375508295496129725_" gradientUnits="userSpaceOnUse" x1="1358.9003" y1="2752.1885" x2="1373.8546" y2="2666.9485">
								<stop  offset="0" style="stop-color:#0080F9"/>
								<stop  offset="0.9964" style="stop-color:#2365D7"/>
							</linearGradient>
							<polygon style="opacity:0.3;fill:url(#SVGID_00000110470489703006870640000008375508295496129725_);" points="
								1494.03,2736.35 1238.56,2735.64 1238.56,2683.73 1494.03,2682.03 							"/>
						</g>
					</g>
					<g>
						<g>
							<polygon class="st17" points="1111.82,2909.73 1099.6,2909.3 1099.6,2306.15 1111.82,2305.2 							"/>
							<polygon class="st19" points="1099.6,2909.3 1099.6,2306.15 1105.71,2305.67 							"/>
							<polygon class="st17" points="1116.47,2323.12 1094.98,2324.7 1094.98,2293.02 1116.47,2291.31 							"/>
							<polygon class="st17" points="1116.47,2925.8 1094.98,2924.98 1094.98,2893.3 1116.47,2893.99 							"/>
						</g>
						<g>
							<polygon class="st17" points="1285.85,2915.86 1272.82,2915.4 1272.82,2292.78 1285.85,2291.78 							"/>
							<polygon class="st19" points="1272.82,2915.4 1272.82,2292.78 1279.33,2292.28 							"/>
							<polygon class="st17" points="1290.8,2310.26 1267.9,2311.95 1267.9,2279.25 1290.8,2277.42 							"/>
							<polygon class="st17" points="1290.8,2932.45 1267.9,2931.58 1267.9,2898.87 1290.8,2899.61 							"/>
						</g>
						<g>
							<polygon class="st17" points="1377.15,2919.07 1363.69,2918.59 1363.69,2285.77 1377.15,2284.73 							"/>
							<polygon class="st19" points="1363.69,2918.59 1363.69,2285.77 1370.41,2285.25 							"/>
							<polygon class="st17" points="1382.27,2303.51 1358.61,2305.26 1358.61,2272.02 1382.27,2270.14 							"/>
							<polygon class="st17" points="1382.27,2935.94 1358.61,2935.03 1358.61,2901.8 1382.27,2902.56 							"/>
						</g>
						<g>
							<polygon class="st17" points="1197.45,2912.75 1184.84,2912.3 1184.84,2299.57 1197.45,2298.6 							"/>
							<polygon class="st19" points="1184.84,2912.3 1184.84,2299.57 1191.14,2299.08 							"/>
							<polygon class="st17" points="1202.25,2316.79 1180.07,2318.43 1180.07,2286.24 1202.25,2284.48 							"/>
							<polygon class="st17" points="1202.25,2929.07 1180.07,2928.23 1180.07,2896.04 1202.25,2896.76 							"/>
						</g>
					</g>
				</g>
			</g>
		</g>
	</g>
</g>
</svg>
